<svg width="20" height="20" viewBox="0 0 20 20" fill="none" xmlns="http://www.w3.org/2000/svg">
<path d="M10 1.875C8.39306 1.875 6.82218 2.35152 5.48603 3.24431C4.14988 4.1371 3.10847 5.40605 2.49351 6.8907C1.87855 8.37535 1.71765 10.009 2.03115 11.5851C2.34466 13.1612 3.11849 14.6089 4.25479 15.7452C5.39109 16.8815 6.83883 17.6554 8.41493 17.9689C9.99102 18.2824 11.6247 18.1215 13.1093 17.5065C14.594 16.8916 15.8629 15.8502 16.7557 14.514C17.6485 13.1779 18.125 11.607 18.125 10C18.1228 7.84581 17.266 5.78051 15.7428 4.25727C14.2195 2.73403 12.1542 1.87727 10 1.875ZM16.8461 9.375H13.7344C13.6243 7.15156 12.9321 5.04141 11.7719 3.35938C13.1307 3.72417 14.3452 4.49613 15.2523 5.57152C16.1594 6.64691 16.7156 7.97419 16.8461 9.375ZM10 16.8664C8.53675 15.2828 7.64925 13.0383 7.518 10.625H12.4821C12.3508 13.0367 11.4633 15.2828 10 16.8664ZM7.518 9.375C7.64925 6.96328 8.53363 4.71719 10 3.13359C11.4633 4.71719 12.3508 6.96172 12.4821 9.375H7.518ZM8.22816 3.35938C7.068 5.04141 6.37582 7.15156 6.26566 9.375H3.15394C3.28447 7.97419 3.84066 6.64691 4.74776 5.57152C5.65486 4.49613 6.8694 3.72417 8.22816 3.35938ZM3.15394 10.625H6.26566C6.37582 12.8484 7.068 14.9586 8.22816 16.6406C6.8694 16.2758 5.65486 15.5039 4.74776 14.4285C3.84066 13.3531 3.28447 12.0258 3.15394 10.625ZM11.7719 16.6406C12.9321 14.9563 13.6243 12.8461 13.7344 10.625H16.8461C16.7156 12.0258 16.1594 13.3531 15.2523 14.4285C14.3452 15.5039 13.1307 16.2758 11.7719 16.6406Z" fill="#EFEAE3"/>
</svg>
