<svg width="1375" height="250" viewBox="0 0 1375 250" fill="none" xmlns="http://www.w3.org/2000/svg">
<path d="M103.869 250C71.3749 250 46.164 243.168 28.2363 229.503C10.3085 215.614 0.896448 195.901 6.10352e-05 170.363H47.7327C49.3014 184.7 54.3436 195.004 62.8593 201.277C71.599 207.549 84.5967 210.685 101.852 210.685C115.522 210.685 126.727 208.221 135.467 203.293C144.206 198.141 148.576 190.3 148.576 179.772C148.576 175.963 148.016 172.603 146.896 169.691C145.999 166.555 143.982 163.866 140.845 161.626C137.708 159.162 135.018 157.258 132.777 155.914C130.537 154.346 126.391 152.778 120.34 151.21C114.289 149.418 109.696 148.185 106.558 147.513C103.421 146.617 97.5943 145.161 89.0786 143.145C78.7701 140.681 70.2545 138.553 63.5315 136.761C57.0327 134.969 49.7496 132.168 41.6821 128.36C33.8387 124.552 27.564 120.408 22.8579 115.927C18.376 111.223 14.5664 105.175 11.429 97.7823C8.29165 90.1658 6.72297 81.5412 6.72297 71.9086C6.72297 48.8351 15.1266 31.138 31.9339 18.8172C48.9652 6.2724 71.2629 0 98.8268 0C126.167 0 148.016 6.49642 164.375 19.4893C180.734 32.4821 189.81 50.9633 191.603 74.9328H144.879C143.534 63.2841 138.604 54.3235 130.088 48.0511C121.797 41.7787 111.264 38.6425 98.4907 38.6425C85.2689 38.6425 74.7364 41.2186 66.893 46.371C59.0496 51.5233 55.1279 58.3557 55.1279 66.8683C55.1279 76.0529 58.9376 82.7733 66.5569 87.0296C74.4002 91.2858 88.0702 95.5421 107.567 99.7984C119.22 102.263 128.744 104.615 136.139 106.855C143.534 108.871 151.49 111.895 160.005 115.927C168.745 119.736 175.468 123.992 180.174 128.696C185.104 133.401 189.138 139.673 192.275 147.513C195.637 155.13 197.317 163.978 197.317 174.059C197.317 197.805 188.69 216.398 171.434 229.839C154.179 243.28 131.657 250 103.869 250Z" fill="#EFEAE3"/>
<path d="M375.677 244.624H331.642V224.462H330.633C324.358 232.975 317.411 239.247 309.792 243.28C302.397 247.312 292.873 249.328 281.22 249.328C262.396 249.328 247.717 243.728 237.185 232.527C226.652 221.326 221.386 206.205 221.386 187.164V72.2446H266.766V179.435C266.766 200.269 276.29 210.685 295.338 210.685C305.87 210.685 314.274 207.101 320.549 199.933C326.824 192.764 329.961 183.356 329.961 171.707V72.2446H375.677V244.624Z" fill="#EFEAE3"/>
<path d="M449.954 72.2446V95.7661H450.963C462.84 76.9489 479.871 67.5403 502.057 67.5403C519.76 67.5403 534.103 73.5887 545.083 85.6855C556.064 97.5582 561.555 113.015 561.555 132.056V244.624H515.839V138.777C515.839 129.368 513.15 121.752 507.771 115.927C502.617 110.103 495.334 107.191 485.922 107.191C475.837 107.191 467.434 110.887 460.711 118.28C454.212 125.672 450.963 135.193 450.963 146.841V244.624H405.247V72.2446H449.954Z" fill="#EFEAE3"/>
<path d="M654.273 249.664C632.536 249.664 614.944 241.487 601.498 225.134C588.052 208.557 581.329 186.38 581.329 158.602C581.329 131.72 588.164 109.879 601.834 93.078C615.728 76.0529 633.432 67.5403 654.945 67.5403C676.459 67.5403 692.706 76.0529 703.686 93.078H704.695V4.36828H750.411V244.624H706.376V222.11H705.703C694.498 240.479 677.355 249.664 654.273 249.664ZM664.357 211.358C677.803 211.358 688 206.765 694.947 197.581C702.118 188.396 705.703 175.739 705.703 159.61C705.703 122.872 692.369 104.503 665.702 104.503C653.377 104.503 643.964 109.431 637.466 119.288C630.967 129.144 627.717 142.249 627.717 158.602C627.717 175.403 630.855 188.396 637.13 197.581C643.628 206.765 652.704 211.358 664.357 211.358Z" fill="#EFEAE3"/>
<path d="M926.687 223.79C909.88 241.039 888.255 249.664 861.811 249.664C835.368 249.664 813.742 241.039 796.935 223.79C780.128 206.317 771.724 184.588 771.724 158.602C771.724 132.616 780.128 110.999 796.935 93.75C813.742 76.2769 835.368 67.5403 861.811 67.5403C888.255 67.5403 909.88 76.2769 926.687 93.75C943.495 110.999 951.898 132.616 951.898 158.602C951.898 184.588 943.495 206.317 926.687 223.79ZM861.811 214.718C875.481 214.718 886.126 209.677 893.745 199.597C901.588 189.292 905.51 175.627 905.51 158.602C905.51 141.577 901.588 127.912 893.745 117.608C886.126 107.303 875.481 102.151 861.811 102.151C847.917 102.151 837.161 107.303 829.541 117.608C821.922 127.688 818.112 141.353 818.112 158.602C818.112 175.627 821.922 189.292 829.541 199.597C837.161 209.677 847.917 214.718 861.811 214.718Z" fill="#EFEAE3"/>
<path d="M1005.2 244.624L954.779 72.2446H1000.16L1021 152.218L1028.73 184.476H1029.4C1031.87 172.155 1034.33 161.29 1036.8 151.882L1058.31 72.2446H1097.3L1119.83 151.882L1127.89 184.476H1128.57C1131.26 172.379 1133.83 161.626 1136.3 152.218L1158.15 72.2446H1202.52L1151.09 244.624H1109.41L1086.55 159.946L1078.82 130.04H1078.14C1075.23 140.793 1072.54 150.762 1070.08 159.946L1046.55 244.624H1005.2Z" fill="#EFEAE3"/>
<path d="M1263.4 72.2446V95.7661H1264.41C1276.29 76.9489 1293.32 67.5403 1315.5 67.5403C1333.21 67.5403 1347.55 73.5887 1358.53 85.6855C1369.51 97.5582 1375 113.015 1375 132.056V244.624H1329.28V138.777C1329.28 129.368 1326.6 121.752 1321.22 115.927C1316.06 110.103 1308.78 107.191 1299.37 107.191C1289.28 107.191 1280.88 110.887 1274.16 118.28C1267.66 125.672 1264.41 135.193 1264.41 146.841V244.624H1218.69V72.2446H1263.4Z" fill="#EFEAE3"/>
</svg>
